# xmcd
#
# Track frame offsets:
#	150
#	18072
#	36455
#	51592
#	68842
#	81630
#	99107
#	115704
#	133477
#	151380
#	169810
#	184952
#	202187
#	214975
#	232452
#	249034
#	278152
#
# Disc length: 3721 seconds
#
# Revision: 1
# Processed by: cddbd v1.5.1PL0 Copyright (c) Steve Scherf et al.
# Submitted via: audiograbber 1.83.01
#
DISCID=030e8711
DTITLE=Kenny Chesney - Sound Choice - StarSeries - Hits of Kenny Chesney
DYEAR=2003
DGENRE=Karaoke
TTITLE0=She Thinks My Tractor's Sexy
TTITLE1=You Had Me From Hello
TTITLE2=How Forever Feels
TTITLE3=Me and You
TTITLE4=Fall in Love
TTITLE5=She's Got it All
TTITLE6=When I Close My Eyes
TTITLE7=What I Need To Do
TTITLE8=She Thinks My Tractor's Sexy (Vocals)
TTITLE9=You Had Me From Hello (Vocals)
TTITLE10=How Forever Feels (Vocals)
TTITLE11=Me and You (Vocals)
TTITLE12=Fall in Love (Vocals)
TTITLE13=She's Got it All (Vocals)
TTITLE14=When I Close My Eyes (Vocals)
TTITLE15=What I Need To Do (Vocals)
TTITLE16=Data Track
EXTD=
EXTT0=
EXTT1=
EXTT2=
EXTT3=
EXTT4=
EXTT5=
EXTT6=
EXTT7=
EXTT8=
EXTT9=
EXTT10=
EXTT11=
EXTT12=
EXTT13=
EXTT14=
EXTT15=
EXTT16=
PLAYORDER=
